<svg xmlns="http://www.w3.org/2000/svg" width="1100" height="620" viewBox="0 0 1100 620">
  <rect x="30" y="40" width="570" height="540" fill="white" stroke="black" stroke-width="2"/>
  <rect x="620" y="40" width="450" height="540" fill="white" stroke="black" stroke-width="2"/>
  <text x="250" y="24" font-size="18">图状态同步高亮（示意）</text>
  <text x="760" y="24" font-size="18">分支树（DFS）</text>
  <line x1="170" y1="150" x2="330" y2="120" stroke="#aaa" stroke-width="2"/>
  <line x1="170" y1="150" x2="250" y2="260" stroke="#e39f30" stroke-width="4"/>
  <line x1="330" y1="120" x2="250" y2="260" stroke="#d22323" stroke-width="5"/>
  <line x1="330" y1="120" x2="430" y2="250" stroke="#188c3c" stroke-width="4"/>
  <line x1="250" y1="260" x2="430" y2="250" stroke="#aaa" stroke-width="2"/>
  <circle cx="170" cy="150" r="20" fill="#caffbf" stroke="black"/><text x="164" y="155">0</text>
  <circle cx="330" cy="120" r="20" fill="#caffbf" stroke="black"/><text x="324" y="125">1</text>
  <circle cx="250" cy="260" r="20" fill="#caffbf" stroke="black"/><text x="244" y="265">2</text>
  <circle cx="430" cy="250" r="20" fill="white" stroke="black"/><text x="424" y="255">3</text>

  <g font-size="12">
    <line x1="720" y1="108" x2="760" y2="152" stroke="gray"/>
    <line x1="790" y1="188" x2="700" y2="232" stroke="gray"/>
    <line x1="790" y1="188" x2="850" y2="232" stroke="gray"/>
    <line x1="730" y1="268" x2="700" y2="322" stroke="gray"/>
    <line x1="880" y1="268" x2="850" y2="322" stroke="gray"/>
    <line x1="880" y1="358" x2="920" y2="412" stroke="gray"/>

    <rect x="635" y="72" width="140" height="36" fill="#f8f8f8" stroke="black"/><text x="644" y="94">#0 起点</text>
    <rect x="705" y="152" width="140" height="36" fill="#f8f8f8" stroke="black"/><text x="714" y="174">#1 展开</text>
    <rect x="645" y="232" width="140" height="36" fill="#f8f8f8" stroke="black"/><text x="654" y="254">#2 选边#2</text>
    <rect x="795" y="232" width="140" height="36" fill="#f8f8f8" stroke="black"/><text x="804" y="254">#3 选边#0</text>
    <rect x="645" y="322" width="140" height="36" fill="#f8f8f8" stroke="black"/><text x="654" y="344">#4 剪枝✂</text>
    <rect x="795" y="322" width="140" height="36" fill="#f8f8f8" stroke="black"/><text x="804" y="344">#5 回溯↩</text>
    <rect x="865" y="412" width="140" height="36" fill="#f8f8f8" stroke="black"/><text x="874" y="434">#6 最优解✅</text>
  </g>
  <text x="660" y="530" font-size="14">过滤：仅最优分支 / 隐藏剪枝分支</text>
</svg>
